# xmcd
#
# Track frame offsets: 
#        150
#        8005
#        34537
#        57977
#        80625
#        101982
#        132252
#        146145
#        169570
#        192192
#
# Disc length: 2872 seconds
#
# Revision: 1
# Processed by: cddbd v1.5.2PL0 Copyright (c) Steve Scherf et al.
# Submitted via: ExactAudioCopy v0.95b4
#
DISCID=830b360a
DTITLE=On Thorns I Lay - Future Narcotic
DYEAR=2000
DGENRE=Gothic Metal
TTITLE0=Infinity
TTITLE1=Future Narcotic
TTITLE2=The Threat Of Seduction
TTITLE3=Feed Her Lust
TTITLE4=Love Can Be A Wave
TTITLE5=Ethereal Blue
TTITLE6=Heaven's Passanger
TTITLE7=Desire
TTITLE8=Back To That Enigma
TTITLE9=The K Song
EXTD=
EXTT0=
EXTT1=
EXTT2=
EXTT3=
EXTT4=
EXTT5=
EXTT6=
EXTT7=
EXTT8=
EXTT9=
PLAYORDER=
